<?xml version="1.0" standalone="no"?>
<!DOCTYPE svg PUBLIC "-//W3C//DTD SVG 20010904//EN"
 "http://www.w3.org/TR/2001/REC-SVG-20010904/DTD/svg10.dtd">
<svg version="1.0" xmlns="http://www.w3.org/2000/svg"
 width="500.000000pt" height="500.000000pt" viewBox="0 0 500.000000 500.000000"
 preserveAspectRatio="xMidYMid meet">

<g transform="translate(0.000000,500.000000) scale(0.100000,-0.100000)"
fill="#000000" stroke="none">
<path d="M0 2500 l0 -2500 2500 0 2500 0 0 1093 0 1094 -170 -1 c-145 -1 -170
-3 -170 -16 0 -8 -11 -46 -24 -85 -22 -64 -23 -70 -7 -82 14 -11 13 -12 -10
-13 -21 0 -28 -6 -34 -27 -15 -60 -162 -243 -195 -243 -6 0 -10 -9 -10 -21 0
-11 -4 -18 -9 -14 -6 3 -13 -1 -18 -9 -17 -29 -115 -86 -149 -86 -32 0 -34 -2
-35 -32 -2 -108 -11 -197 -22 -220 -15 -34 -30 -36 -265 -24 -113 5 -132 9
-132 27 0 6 4 8 9 5 5 -4 7 4 4 15 -6 20 -7 19 -18 -7 -7 -16 -10 -34 -8 -40
6 -18 71 -44 108 -44 39 0 44 -15 24 -67 -8 -22 -12 -25 -21 -13 -8 12 -8 11
-3 -5 4 -11 9 -31 11 -45 4 -22 3 -23 -5 -5 -7 15 -9 11 -6 -20 2 -22 -3 -54
-10 -70 -7 -17 -15 -57 -19 -90 -4 -33 -14 -82 -23 -108 -9 -30 -13 -62 -8
-84 l6 -35 -38 5 c-59 8 -95 16 -128 26 l-30 9 30 1 c17 1 42 11 57 24 24 19
29 32 34 93 l7 71 -152 -1 -151 -1 0 -83 c0 -88 -15 -133 -49 -152 -13 -6
-247 -10 -683 -10 -714 0 -700 -1 -726 53 -15 31 -36 34 -97 12 -67 -24 -149
-18 -222 17 -21 10 -33 31 -39 65 -3 19 35 63 55 63 21 0 79 27 103 48 14 11
15 18 5 33 -16 26 -35 24 -43 -6 -5 -19 -13 -25 -34 -25 -15 0 -44 -7 -64 -15
-24 -10 -49 -13 -72 -9 -34 6 -36 8 -30 38 4 17 9 56 12 86 6 51 9 56 43 72
20 9 50 19 68 23 17 3 34 13 37 21 5 12 2 12 -16 3 -12 -7 -44 -18 -71 -25
l-49 -13 7 82 c4 45 9 84 11 86 3 3 73 -49 109 -82 30 -28 133 -107 139 -107
3 0 19 -12 35 -28 52 -47 62 -54 69 -47 4 4 1 10 -6 12 -7 3 -34 25 -60 49
-26 24 -53 44 -60 44 -7 0 -15 6 -18 13 -3 8 -28 31 -57 53 -29 21 -57 46 -64
55 -7 9 -26 22 -43 29 -40 17 -45 40 -34 169 11 129 12 333 1 381 l-7 36 -98
-1 c-53 0 -130 2 -171 5 l-73 5 -30 -73 c-36 -90 -41 -120 -73 -412 -14 -129
-28 -248 -30 -265 -2 -16 -7 -65 -11 -108 -4 -43 -10 -79 -13 -81 -12 -8 -216
80 -272 116 -66 43 -125 107 -186 202 -71 109 -163 322 -163 375 0 22 -3 23
-37 18 l-38 -6 28 15 c20 11 27 20 22 32 -11 29 -35 145 -35 175 0 22 -4 27
-24 27 -14 0 -28 5 -31 10 -3 6 4 10 17 10 l24 0 -4 165 c-8 329 58 603 205
847 55 91 199 245 255 271 l37 18 3 112 3 112 165 3 165 2 -4 115 -3 115 250
0 250 0 7 -30 c7 -31 4 -221 -3 -252 -4 -17 -23 -18 -224 -18 l-219 0 3 -32
c3 -30 7 -33 38 -36 75 -6 199 -36 300 -72 95 -33 290 -127 315 -151 26 -26
33 -7 37 97 3 102 4 107 31 130 25 21 38 24 116 24 56 0 91 -4 100 -12 9 -10
74 -12 269 -11 141 1 277 6 302 10 l45 8 3 52 c2 37 8 53 20 57 9 3 23 9 31
12 10 5 12 -6 10 -52 l-4 -59 247 -5 c241 -5 248 -6 270 -28 23 -22 23 -26 26
-322 2 -165 6 -300 10 -300 10 0 185 90 197 101 5 5 -18 9 -57 9 -104 0 -98
-9 -98 156 l0 144 250 0 250 0 0 -49 0 -48 72 23 c48 16 105 26 168 29 52 2
98 4 102 5 4 0 9 12 11 28 3 21 4 19 3 -7 -1 -32 2 -35 46 -48 71 -20 148 -98
217 -217 52 -90 76 -116 76 -84 0 14 4 14 198 16 l137 2 0 1115 0 1115 -2500
0 -2500 0 0 -2500z m2474 1451 c16 -7 23 -16 21 -28 -2 -10 -7 -35 -10 -55 -5
-30 -11 -38 -35 -43 -29 -6 -34 -14 -30 -45 2 -16 49 -70 60 -70 4 0 27 16 51
35 24 19 52 35 62 35 20 0 20 -1 5 -35 -12 -26 -23 -32 -33 -15 -3 6 -11 10
-17 10 -6 0 -1 -8 10 -19 l22 -18 -22 -29 c-12 -16 -28 -33 -35 -37 -7 -4 -13
-14 -13 -22 0 -14 -80 -55 -107 -55 -8 0 -42 27 -74 61 -57 57 -59 59 -45 25
25 -60 70 -96 120 -96 19 0 26 -5 26 -19 0 -48 -6 -51 -116 -51 -115 0 -126 6
-106 58 6 15 12 51 15 80 4 47 1 57 -21 77 -20 18 -23 29 -18 52 14 56 33 73
81 73 30 0 48 5 57 18 7 9 25 23 41 31 26 14 38 41 17 41 -5 0 -10 7 -10 15 0
8 9 15 19 15 11 0 23 5 26 10 8 13 27 13 59 1z m-879 -231 c3 -5 1 -10 -4 -10
-6 0 -11 5 -11 10 0 6 2 10 4 10 3 0 8 -4 11 -10z m35 0 c0 -5 -5 -10 -11 -10
-5 0 -7 5 -4 10 3 6 8 10 11 10 2 0 4 -4 4 -10z m40 0 c0 -5 -5 -10 -11 -10
-5 0 -7 5 -4 10 3 6 8 10 11 10 2 0 4 -4 4 -10z m-790 -35 c0 -13 -21 -25 -43
-25 -6 0 -3 6 8 13 13 10 15 16 6 21 -6 4 -9 12 -5 17 7 12 34 -8 34 -26z
m1841 -115 c11 0 12 -37 1 -44 -13 -8 -55 30 -47 43 4 7 14 10 22 7 8 -3 19
-6 24 -6z m1282 -114 c18 -7 43 -26 57 -41 21 -22 25 -36 25 -83 -1 -36 -7
-68 -19 -87 -19 -32 -77 -81 -95 -79 -6 1 -101 2 -211 3 -184 1 -200 2 -200
19 0 25 74 135 115 171 104 91 245 133 328 97z m257 -256 c0 -5 -7 -10 -15
-10 -8 0 -15 5 -15 10 0 6 7 10 15 10 8 0 15 -4 15 -10z m-400 -50 c0 -5 -5
-10 -11 -10 -5 0 -7 5 -4 10 3 6 8 10 11 10 2 0 4 -4 4 -10z m40 0 c0 -5 -4
-10 -10 -10 -5 0 -10 5 -10 10 0 6 5 10 10 10 6 0 10 -4 10 -10z m35 0 c3 -5
1 -10 -4 -10 -6 0 -11 5 -11 10 0 6 2 10 4 10 3 0 8 -4 11 -10z m232 -37 c-3
-10 -5 -4 -5 12 0 17 2 24 5 18 2 -7 2 -21 0 -30z m756 20 c-7 -2 -19 -2 -25
0 -7 3 -2 5 12 5 14 0 19 -2 13 -5z m-29 -72 c-2 -3 -12 3 -22 13 -16 17 -16
18 5 5 12 -7 20 -15 17 -18z m-4670 -107 c10 -27 7 -34 -19 -34 -39 0 -33 44
6 49 4 1 10 -6 13 -15z m-66 -886 c-4 -27 -23 -34 -32 -13 -8 21 1 35 20 35
10 0 14 -8 12 -22z m4636 -214 c10 -38 0 -41 -12 -5 -6 17 -7 31 -3 31 5 0 12
-12 15 -26z m-3531 -33 c-11 -14 -31 -27 -44 -28 -23 -2 -23 -2 2 8 15 5 33
24 40 41 7 17 15 26 17 19 2 -7 -4 -25 -15 -40z m277 5 c0 -12 4 -27 10 -34 6
-8 5 -7 -4 0 -17 16 -32 73 -16 63 5 -3 10 -16 10 -29z m-143 -66 c9 13 19 37
24 54 7 30 7 30 8 4 1 -15 -9 -44 -21 -65 -23 -38 -23 -40 -22 -436 l1 -399
-22 6 c-12 3 -53 10 -90 15 -37 5 -69 12 -71 14 -3 3 2 33 11 68 8 35 30 134
49 219 19 85 47 202 61 260 14 58 28 123 30 145 2 22 7 78 12 125 l8 85 3 -59
c3 -57 4 -58 19 -36z m3413 8 c0 -7 -5 -20 -10 -28 -8 -12 -10 -9 -10 13 0 15
5 27 10 27 6 0 10 -6 10 -12z m-3633 -140 c-3 -7 -5 -2 -5 12 0 14 2 19 5 13
2 -7 2 -19 0 -25z m-27 -220 c-11 -90 -25 -185 -30 -213 -8 -46 -9 -45 -4 20
7 102 48 393 52 373 2 -9 -6 -90 -18 -180z m3403 155 c-7 -2 -21 -2 -30 0 -10
3 -4 5 12 5 17 0 24 -2 18 -5z m-3136 -293 c0 -125 -3 -184 -7 -150 -10 77
-10 422 0 385 4 -16 8 -122 7 -235z m2813 135 c0 -8 -7 -15 -15 -15 -8 0 -15
7 -15 15 0 8 7 15 15 15 8 0 15 -7 15 -15z m-115 -135 c-28 -4 -61 -10 -73
-14 -13 -4 -22 -3 -22 3 0 11 36 18 100 18 l45 1 -50 -8z m69 -70 c13 -30 33
-76 45 -102 18 -40 20 -54 12 -90 -6 -27 -6 -47 0 -53 8 -8 14 20 10 53 -3 20
9 14 18 -10 5 -14 5 -26 -1 -29 -6 -4 -13 -31 -17 -60 l-7 -54 -24 45 c-13 25
-30 54 -37 65 -7 11 -15 27 -19 35 -4 8 -17 31 -29 50 -47 76 -105 190 -98
191 23 2 46 8 51 14 3 3 22 5 40 3 31 -3 36 -8 56 -58z m-3077 -107 c-3 -10
-5 -2 -5 17 0 19 2 27 5 18 2 -10 2 -26 0 -35z m-10 -80 c-3 -10 -5 -4 -5 12
0 17 2 24 5 18 2 -7 2 -21 0 -30z m3196 -86 c4 3 7 0 7 -8 0 -9 13 -28 30 -44
24 -23 27 -31 19 -47 -6 -11 -17 -17 -25 -14 -8 3 -14 2 -14 -2 0 -4 -11 -12
-25 -19 -14 -6 -25 -7 -25 -2 0 5 -4 9 -10 9 -5 0 -7 -6 -4 -13 3 -8 -7 -19
-23 -26 -27 -12 -27 -12 -10 6 9 11 17 27 17 37 0 14 3 15 21 5 15 -8 24 -8
32 0 8 8 4 11 -13 11 -22 1 -22 2 9 15 25 12 37 12 47 4 10 -8 14 -8 14 -1 0
6 -8 17 -18 24 -10 7 -24 22 -30 33 -8 15 -11 16 -12 5 0 -9 5 -21 12 -28 14
-14 11 -18 -22 -26 -14 -3 -20 -3 -13 0 9 4 10 20 6 52 -6 41 -4 45 9 35 8 -7
18 -10 21 -6z m-3133 -99 c0 -37 30 -78 61 -85 45 -9 45 -23 0 -23 -52 0 -181
58 -181 82 0 9 5 20 11 23 5 4 14 17 19 30 9 23 10 24 50 8 27 -11 40 -22 40
-35z m293 21 c36 -9 42 -14 43 -38 1 -35 32 -71 60 -71 12 0 24 -7 28 -15 10
-26 -54 -18 -117 15 -32 17 -64 30 -71 30 -6 0 -17 5 -23 11 -12 12 -4 32 22
66 12 15 8 15 58 2z"/>
<path d="M2240 3774 c-17 -43 -11 -61 8 -24 12 25 26 37 47 41 29 6 29 7 -8 8
-32 1 -39 -3 -47 -25z"/>
<path d="M2405 3700 c16 -16 33 -30 39 -30 5 0 -3 14 -19 30 -16 17 -33 30
-39 30 -5 0 3 -13 19 -30z"/>
<path d="M4050 1231 c0 -5 5 -13 10 -16 6 -3 10 -2 10 4 0 5 -4 13 -10 16 -5
3 -10 2 -10 -4z"/>
<path d="M4165 1188 c3 -16 1 -28 -4 -28 -13 0 -21 -27 -15 -45 4 -8 10 -12
15 -9 5 3 9 -2 9 -10 0 -9 8 -14 20 -13 20 1 27 26 13 41 -5 4 -16 26 -26 49
-11 28 -16 33 -12 15z m6 -55 c-8 -15 -10 -15 -11 -2 0 17 10 32 18 25 2 -3
-1 -13 -7 -23z m22 -18 c4 -8 2 -17 -3 -20 -6 -4 -10 3 -10 14 0 25 6 27 13 6z"/>
<path d="M4090 1151 c0 -6 4 -11 8 -11 5 0 19 -22 32 -50 13 -27 25 -48 28
-46 6 6 -39 95 -55 108 -9 7 -13 7 -13 -1z"/>
<path d="M4193 975 c11 -23 27 -34 27 -17 -1 9 -26 42 -33 42 -3 0 0 -11 6
-25z"/>
<path d="M2445 3299 c-16 -25 19 -29 211 -27 169 3 199 5 199 18 0 13 -30 15
-202 18 -139 2 -204 -1 -208 -9z"/>
<path d="M2902 3296 c1 -10 8 -17 13 -17 15 1 12 24 -3 29 -9 3 -13 -2 -10
-12z"/>
<path d="M1030 3175 l0 -36 30 16 c17 9 30 18 30 20 0 2 -13 11 -30 20 l-30
16 0 -36z"/>
<path d="M1980 3040 l0 -89 78 -3 77 -3 0 -170 0 -170 -77 -3 -78 -3 0 -829 0
-830 705 0 705 0 0 1095 0 1095 -705 0 -705 0 0 -90z m1304 -86 c3 -9 4 -20 0
-25 -3 -5 0 -9 6 -9 14 0 12 -255 -2 -282 -8 -16 -26 -18 -167 -18 -136 0
-160 2 -165 16 -11 28 -7 304 5 304 5 0 8 4 4 9 -7 12 45 17 196 19 99 2 118
0 123 -14z m-426 -598 c2 -108 -1 -163 -9 -172 -9 -11 -47 -14 -169 -14 -135
0 -159 2 -164 16 -8 22 -8 319 1 328 4 3 81 5 172 4 l166 -3 3 -159z m437 -11
l0 -170 -164 -3 c-125 -2 -166 1 -173 10 -9 16 -11 322 -1 332 4 3 81 5 172 4
l166 -3 0 -170z m-887 -273 c9 -7 12 -48 10 -173 l-3 -164 -170 0 -170 0 -3
160 c-1 87 0 165 2 172 4 10 43 13 163 13 87 0 164 -4 171 -8z m700 -44 c7 -7
22 -13 35 -13 17 0 21 -5 19 -23 -2 -13 3 -25 12 -28 20 -8 21 -33 1 -41 -9
-3 -15 -13 -13 -22 4 -22 -10 -41 -26 -35 -7 3 -19 -2 -26 -11 -16 -19 -36
-19 -44 0 -3 8 -15 14 -28 12 -18 -2 -24 4 -26 26 -2 15 -8 27 -13 27 -15 0
-10 37 6 44 8 3 14 15 12 28 -1 18 3 23 23 24 13 1 26 7 28 13 5 15 25 14 40
-1z m112 -158 c0 -5 7 -10 15 -10 8 0 15 -7 15 -15 0 -8 4 -15 9 -15 5 0 4
-11 -2 -24 -20 -42 -73 -43 -93 -2 -12 25 2 56 25 56 6 0 11 5 11 10 0 6 5 10
10 10 6 0 10 -4 10 -10z m-805 -705 l0 -170 -170 0 -170 0 -3 160 c-1 87 0
165 3 172 3 11 41 13 172 11 l168 -3 0 -170z m433 163 c13 -13 15 -97 6 -236
l-7 -92 -162 0 -162 0 -6 83 c-9 104 -9 221 -1 241 5 14 29 16 163 16 109 0
161 -4 169 -12z"/>
<path d="M3018 2943 c7 -3 16 -2 19 1 4 3 -2 6 -13 5 -11 0 -14 -3 -6 -6z"/>
<path d="M3050 2910 c-9 -6 -10 -10 -3 -10 6 0 15 5 18 10 8 12 4 12 -15 0z"/>
<path d="M3098 2913 c6 -2 18 -2 25 0 6 3 1 5 -13 5 -14 0 -19 -2 -12 -5z"/>
<path d="M3186 2865 c4 -8 8 -15 10 -15 2 0 4 7 4 15 0 8 -4 15 -10 15 -5 0
-7 -7 -4 -15z"/>
<path d="M3120 2856 c0 -2 7 -7 16 -10 8 -3 12 -2 9 4 -6 10 -25 14 -25 6z"/>
<path d="M3135 2790 c-10 -11 -13 -20 -7 -20 6 0 16 9 22 20 6 11 9 20 7 20
-2 0 -12 -9 -22 -20z"/>
<path d="M3010 2741 c0 -5 5 -13 10 -16 6 -3 10 -2 10 4 0 5 -4 13 -10 16 -5
3 -10 2 -10 -4z"/>
<path d="M3040 2720 c0 -5 5 -10 11 -10 5 0 7 5 4 10 -3 6 -8 10 -11 10 -2 0
-4 -4 -4 -10z"/>
<path d="M3235 2720 c3 -5 8 -10 11 -10 2 0 4 5 4 10 0 6 -5 10 -11 10 -5 0
-7 -4 -4 -10z"/>
<path d="M3005 2700 c3 -5 8 -10 11 -10 2 0 4 5 4 10 0 6 -5 10 -11 10 -5 0
-7 -4 -4 -10z"/>
<path d="M3083 2703 c9 -2 23 -2 30 0 6 3 -1 5 -18 5 -16 0 -22 -2 -12 -5z"/>
<path d="M2961 2646 c10 -9 79 -14 74 -5 -4 5 -22 9 -42 9 -20 0 -34 -2 -32
-4z"/>
<path d="M2090 1886 l0 -106 150 0 150 0 0 58 c0 44 -5 63 -18 75 -28 26 -65
21 -97 -13 -16 -17 -37 -29 -46 -28 -9 2 -36 28 -61 58 -70 87 -78 82 -78 -44z"/>
<path d="M3067 1963 c-13 -12 -7 -44 8 -49 24 -10 47 14 34 37 -10 19 -30 25
-42 12z"/>
<path d="M3200 1820 c0 -5 5 -10 10 -10 6 0 10 5 10 10 0 6 -4 10 -10 10 -5 0
-10 -4 -10 -10z"/>
<path d="M2290 1110 c-8 -5 -23 -11 -33 -14 -29 -9 -16 -38 23 -51 64 -22 116
19 71 57 -25 20 -38 21 -61 8z"/>
<path d="M2709 1153 c-13 -16 -12 -17 4 -4 9 7 17 15 17 17 0 8 -8 3 -21 -13z"/>
<path d="M3745 3069 c-22 -61 -55 -165 -55 -176 0 -7 4 -13 8 -13 11 0 67 188
59 197 -4 3 -9 0 -12 -8z"/>
<path d="M3612 3004 c-42 -18 -37 -33 16 -55 33 -14 42 -15 42 -5 0 8 -11 17
-25 20 -14 4 -25 11 -25 16 0 5 11 12 25 16 14 3 25 10 25 15 0 12 -19 10 -58
-7z"/>
<path d="M3780 3011 c0 -5 11 -12 25 -15 14 -4 25 -10 25 -15 0 -4 -11 -13
-25 -19 -43 -20 -27 -32 17 -13 55 23 58 37 12 56 -42 17 -54 19 -54 6z"/>
<path d="M4803 2723 c-29 -6 -72 -50 -90 -92 -28 -66 13 -155 83 -181 73 -28
169 10 193 75 20 58 7 121 -35 160 -42 40 -85 51 -151 38z"/>
<path d="M1387 2704 c-5 -5 -29 -11 -50 -13 -4 -1 -3 -10 3 -22 10 -17 14 -18
27 -7 15 12 15 11 4 -10 -11 -21 -11 -23 6 -14 13 7 22 6 30 -4 10 -10 9 -16
-9 -28 -16 -12 -18 -16 -7 -16 19 0 52 34 42 43 -3 4 -1 7 5 7 7 0 12 12 12
26 0 21 -4 25 -20 21 -11 -3 -18 -2 -15 3 5 9 -20 21 -28 14z"/>
<path d="M1300 2660 c0 -5 5 -10 10 -10 6 0 10 5 10 10 0 6 -4 10 -10 10 -5 0
-10 -4 -10 -10z"/>
<path d="M1369 2609 l-24 -20 28 17 c15 9 27 18 27 20 0 8 -8 4 -31 -17z"/>
<path d="M1450 2616 c0 -9 5 -16 10 -16 6 0 10 4 10 9 0 6 -4 13 -10 16 -5 3
-10 -1 -10 -9z"/>
<path d="M3908 2616 c-8 -8 -23 -16 -34 -18 -20 -4 -33 -48 -39 -143 -2 -27
-7 -60 -10 -72 -6 -19 -3 -23 14 -23 11 0 28 -11 36 -24 9 -13 25 -26 36 -29
12 -3 18 -10 14 -16 -3 -6 2 -11 12 -11 15 0 16 -2 3 -10 -10 -7 -11 -10 -2
-10 7 0 17 11 22 25 6 16 17 25 30 25 14 0 19 4 14 12 -4 7 -3 8 4 4 6 -4 20
2 32 14 11 11 27 20 35 20 10 0 15 10 15 29 0 17 5 33 10 36 6 3 10 17 10 30
0 13 -4 27 -10 30 -5 3 -10 15 -10 25 0 10 -9 25 -19 32 -10 8 -21 25 -23 38
-2 20 -9 26 -38 28 -19 2 -39 8 -44 13 -14 13 -43 11 -58 -5z m40 -105 c11 -7
11 -9 -2 -14 -9 -4 -16 -2 -16 4 0 6 -5 7 -12 3 -7 -4 -8 -3 -4 4 8 14 16 15
34 3z m52 -21 c0 -5 -7 -7 -15 -4 -8 4 -12 10 -9 15 6 11 24 2 24 -11z m-123
-22 c-3 -8 -6 -5 -6 6 -1 11 2 17 5 13 3 -3 4 -12 1 -19z m103 2 c0 -5 -5 -10
-11 -10 -5 0 -7 5 -4 10 3 6 8 10 11 10 2 0 4 -4 4 -10z m-66 -18 c3 -5 -1 -9
-9 -9 -8 0 -15 4 -15 9 0 4 4 8 9 8 6 0 12 -4 15 -8z m131 -8 c12 -5 13 -9 5
-14 -6 -4 -14 -26 -17 -48 -3 -23 -9 -39 -14 -36 -4 2 -6 11 -2 20 3 8 -3 21
-13 29 -18 14 -18 14 -1 15 10 0 15 5 12 10 -3 6 -1 10 5 10 6 0 8 5 5 10 -7
12 -3 12 20 4z m-124 -45 c12 -13 24 -19 37 -15 11 4 24 1 31 -7 8 -11 5 -16
-15 -26 -22 -10 -33 -8 -62 6 -36 18 -61 52 -29 40 11 -4 14 -2 10 9 -8 21 7
17 28 -7z m39 11 c0 -5 -4 -10 -10 -10 -5 0 -10 5 -10 10 0 6 5 10 10 10 6 0
10 -4 10 -10z"/>
<path d="M1284 2592 c4 -7 2 -27 -4 -43 -11 -27 -10 -34 9 -59 11 -16 21 -34
21 -40 0 -17 29 -11 39 8 8 16 4 23 -22 42 -18 13 -26 16 -19 7 8 -9 12 -22
10 -29 -3 -8 -12 -1 -23 16 -18 27 -18 30 -3 57 15 26 15 29 0 41 -13 11 -14
11 -8 0z"/>
<path d="M1352 2560 c-7 -12 -10 -25 -7 -30 3 -4 -1 -10 -7 -13 -7 -2 -9 -8
-5 -13 12 -12 37 24 37 53 0 28 -2 28 -18 3z"/>
<path d="M1455 2570 c-4 -6 -3 -16 3 -22 6 -6 12 -6 17 2 4 6 3 16 -3 22 -6 6
-12 6 -17 -2z"/>
<path d="M1400 2555 c0 -8 5 -15 10 -15 6 0 10 7 10 15 0 8 -4 15 -10 15 -5 0
-10 -7 -10 -15z"/>
<path d="M1580 2473 c0 -17 28 -48 36 -40 4 4 2 7 -4 7 -7 0 -12 6 -12 14 0 8
-4 18 -10 21 -5 3 -10 2 -10 -2z"/>
<path d="M4710 2420 c8 -5 33 -10 55 -10 29 0 44 -5 53 -20 10 -17 23 -20 82
-20 39 0 70 -4 70 -8 0 -23 26 -5 28 19 3 34 -5 36 -101 34 -43 0 -80 2 -83 7
-3 4 -31 8 -62 8 -41 0 -53 -3 -42 -10z"/>
<path d="M1672 2345 c0 -11 4 -31 8 -45 6 -20 8 -21 8 -5 0 11 -4 31 -8 45 -6
20 -8 21 -8 5z"/>
<path d="M1532 2320 c-42 -30 -57 -49 -24 -31 23 14 78 60 71 61 -3 0 -25 -14
-47 -30z"/>
<path d="M4705 2330 c-4 -7 41 -10 131 -10 76 0 135 2 133 4 -11 9 -258 15
-264 6z"/>
<path d="M4020 2295 c0 -9 -6 -12 -17 -8 -10 4 -14 2 -9 -5 3 -6 -3 -13 -15
-17 -11 -4 -18 -9 -16 -12 9 -9 67 27 67 42 0 8 -2 15 -5 15 -3 0 -5 -7 -5
-15z"/>
<path d="M3912 2230 c-10 -16 -10 -20 0 -21 7 0 4 -4 -7 -9 -33 -14 -38 -11
-21 15 13 20 14 25 2 25 -35 0 -45 -62 -11 -68 35 -7 160 56 143 73 -3 4 -20
-1 -37 -9 -38 -20 -52 -20 -45 -1 9 22 -9 18 -24 -5z"/>
<path d="M4096 2220 c8 -28 8 -34 0 -70 -4 -15 2 -9 14 15 15 31 20 35 20 18
0 -13 5 -23 10 -23 12 0 12 2 0 36 -6 15 -13 24 -17 21 -3 -4 -12 1 -20 11
-13 15 -13 15 -7 -8z"/>
<path d="M1350 2221 c-44 -7 -44 -7 -20 -20 27 -13 80 -1 80 19 0 5 -3 9 -7 8
-5 0 -28 -4 -53 -7z"/>
<path d="M4050 2195 c-7 -9 -10 -27 -7 -44 4 -16 2 -31 -3 -33 -6 -2 -12 -36
-15 -76 -3 -40 -10 -84 -15 -98 -13 -32 -13 -64 -1 -64 5 0 13 10 17 22 3 12
13 29 21 36 8 8 11 18 6 21 -11 8 -4 161 7 161 5 0 8 -28 6 -62 -2 -35 -2 -49
0 -33 8 56 15 76 24 70 6 -3 10 -1 10 4 0 6 -5 11 -11 11 -8 0 -10 17 -7 50 5
52 -7 65 -32 35z m17 -47 c-2 -13 -4 -5 -4 17 -1 22 1 32 4 23 2 -10 2 -28 0
-40z"/>
<path d="M3940 2160 c0 -5 4 -10 9 -10 6 0 13 5 16 10 3 6 -1 10 -9 10 -9 0
-16 -4 -16 -10z"/>
<path d="M3837 2139 c7 -7 15 -10 18 -7 3 3 -2 9 -12 12 -14 6 -15 5 -6 -5z"/>
<path d="M3882 2136 c7 -8 15 -12 17 -11 5 6 -10 25 -20 25 -5 0 -4 -6 3 -14z"/>
<path d="M1429 2090 c-13 -10 -19 -19 -13 -20 6 0 19 9 29 20 23 26 14 26 -16
0z"/>
<path d="M4126 1985 c2 -14 0 -25 -6 -25 -5 0 -10 -10 -10 -22 0 -21 1 -21 15
6 17 33 19 52 6 61 -6 3 -8 -6 -5 -20z"/>
<path d="M4091 1958 c0 -28 2 -30 9 -13 12 28 12 45 0 45 -5 0 -10 -15 -9 -32z"/>
<path d="M4130 1929 c0 -11 5 -17 10 -14 6 3 10 13 10 21 0 8 -4 14 -10 14 -5
0 -10 -9 -10 -21z"/>
<path d="M4070 1931 c0 -6 4 -13 10 -16 6 -3 7 1 4 9 -7 18 -14 21 -14 7z"/>
<path d="M4037 1900 c-3 -11 -1 -20 4 -20 5 0 9 9 9 20 0 11 -2 20 -4 20 -2 0
-6 -9 -9 -20z"/>
<path d="M4061 1894 c0 -11 3 -14 6 -6 3 7 2 16 -1 19 -3 4 -6 -2 -5 -13z"/>
<path d="M4090 1890 c0 -5 5 -10 10 -10 6 0 10 5 10 10 0 6 -4 10 -10 10 -5 0
-10 -4 -10 -10z"/>
<path d="M4120 1891 c0 -6 -10 -16 -22 -21 -16 -6 -18 -9 -7 -9 19 -1 45 26
35 36 -3 3 -6 1 -6 -6z"/>
<path d="M3991 1834 c0 -11 3 -14 6 -6 3 7 2 16 -1 19 -3 4 -6 -2 -5 -13z"/>
<path d="M4085 1840 c-3 -5 3 -10 14 -10 12 0 21 5 21 10 0 6 -6 10 -14 10 -8
0 -18 -4 -21 -10z"/>
<path d="M4004 1776 c1 -18 4 -22 14 -14 9 8 9 14 1 24 -16 19 -17 18 -15 -10z"/>
<path d="M4142 1764 c-19 -21 -39 -33 -47 -30 -8 3 -17 1 -20 -4 -4 -6 6 -10
20 -10 27 0 85 48 85 69 0 15 -1 15 -38 -25z"/>
<path d="M3945 1760 c-3 -5 -1 -10 4 -10 6 0 11 5 11 10 0 6 -2 10 -4 10 -3 0
-8 -4 -11 -10z"/>
<path d="M3903 1716 c-10 -21 -10 -26 1 -26 8 0 22 -3 32 -7 11 -4 15 -2 13 6
-3 7 -9 12 -14 11 -6 -1 -12 9 -15 21 -5 21 -6 21 -17 -5z"/>
<path d="M3890 1669 c0 -5 5 -7 10 -4 6 3 10 8 10 11 0 2 -4 4 -10 4 -5 0 -10
-5 -10 -11z"/>
<path d="M3850 1660 c-20 -12 -10 -19 14 -10 11 3 15 9 10 13 -6 3 -16 2 -24
-3z"/>
<path d="M3960 1600 c0 -5 5 -10 10 -10 6 0 10 5 10 10 0 6 -4 10 -10 10 -5 0
-10 -4 -10 -10z"/>
<path d="M3920 1570 c0 -5 -19 -15 -42 -21 l-43 -12 33 -7 c18 -4 36 -10 39
-13 12 -12 42 13 36 30 -5 13 -2 15 12 10 15 -6 16 -5 5 8 -14 17 -40 20 -40
5z"/>
<path d="M1731 1498 c0 -13 6 -72 13 -133 8 -60 12 -113 10 -117 -3 -4 1 -10
7 -14 9 -5 10 9 6 57 -4 35 -10 101 -13 147 -4 45 -11 82 -15 82 -5 0 -9 -10
-8 -22z"/>
<path d="M3848 1513 c7 -3 16 -2 19 1 4 3 -2 6 -13 5 -11 0 -14 -3 -6 -6z"/>
<path d="M3880 1500 c0 -6 7 -10 15 -10 8 0 15 2 15 4 0 2 -7 6 -15 10 -8 3
-15 1 -15 -4z"/>
<path d="M3740 1400 c0 -5 5 -10 11 -10 5 0 7 5 4 10 -3 6 -8 10 -11 10 -2 0
-4 -4 -4 -10z"/>
<path d="M3688 1293 c-30 -5 -58 -36 -58 -65 0 -28 29 -48 71 -48 38 0 39 1
39 34 0 22 6 36 16 40 22 8 26 8 19 -4 -3 -5 10 -8 32 -6 28 3 40 0 44 -12 3
-9 8 -11 12 -6 12 20 -10 33 -61 36 -30 2 -52 8 -52 14 0 10 -27 28 -33 23 -1
-1 -14 -4 -29 -6z"/>
<path d="M3518 1153 c18 -2 45 -2 60 0 15 2 0 4 -33 4 -33 0 -45 -2 -27 -4z"/>
<path d="M3738 1123 c7 -3 16 -2 19 1 4 3 -2 6 -13 5 -11 0 -14 -3 -6 -6z"/>
<path d="M3738 1103 c7 -3 16 -2 19 1 4 3 -2 6 -13 5 -11 0 -14 -3 -6 -6z"/>
<path d="M3777 1053 c3 -7 9 -13 13 -13 4 0 12 6 18 13 8 9 5 12 -13 12 -14 0
-21 -5 -18 -12z"/>
<path d="M3755 1010 c-3 -5 -1 -10 4 -10 6 0 11 5 11 10 0 6 -2 10 -4 10 -3 0
-8 -4 -11 -10z"/>
<path d="M3785 999 c-6 -8 -4 -10 5 -4 10 6 11 1 7 -21 -6 -27 -6 -27 5 -6 13
26 -3 55 -17 31z"/>
<path d="M1830 938 c-41 -12 -70 -23 -64 -25 17 -6 156 25 168 37 15 15 -19
11 -104 -12z"/>
<path d="M3742 942 c-9 -6 -10 -16 -4 -32 7 -18 11 -20 17 -10 5 9 4 15 -4 18
-9 3 -9 7 0 18 13 16 10 18 -9 6z"/>
<path d="M3774 922 c3 -39 12 -50 19 -22 3 11 1 20 -3 20 -5 0 -11 8 -13 18
-3 9 -4 2 -3 -16z"/>
<path d="M2507 884 c-4 -4 -7 -20 -7 -36 l0 -28 186 0 185 0 -3 33 -3 32 -176
3 c-96 1 -178 -1 -182 -4z"/>
<path d="M3725 838 c-4 -18 -9 -42 -12 -53 -3 -11 -2 -17 2 -13 4 4 11 22 16
40 8 32 8 31 6 -9 -1 -24 1 -43 5 -43 5 0 8 25 8 55 0 60 -15 74 -25 23z"/>
<path d="M3760 775 c0 -5 5 -17 10 -25 5 -8 10 -10 10 -5 0 6 -5 17 -10 25 -5
8 -10 11 -10 5z"/>
</g>
</svg>
